PathFileType	4	(X/Y/Z)	C:\Documents and Settings\user\My Documents\MotionFiles\BioEngCompLab_Data\Delaware\Subject 2\Static1_smoothed.trc
DataRate	CameraRate	NumFrames	NumMarkers	Units	OrigDataRate	OrigDataStartFrame	OrigNumFrames
60.00	60.00	       6	49	mm	60.00	1	       300
Frame#	Time	R.ASIS			L.ASIS			V.Sacral			R.Thigh.Upper			R.Thigh.Front			R.Thigh.Rear			L.Thigh.Upper			L.Thigh.Front			L.Thigh.Rear			R.Knee.Lat			R.Knee.Med			L.Knee.Lat			L.Knee.Med			R.Shank.Upper			R.Shank.Front			R.Shank.Rear			L.Shank.Upper			L.Shank.Front			L.Shank.Rear			R.Ankle.Lat			R.Ankle.Med			L.Ankle.Lat			L.Ankle.Med			R.Heel			R.Midfoot.Sup			R.Midfoot.Lat			R.Toe.Tip			L.Heel			L.Midfoot.Sup			L.Midfoot.Lat			L.Toe.Tip			Sternum			R.Acromium			L.Acromium			R.Bicep			L.Bicep			R.Elbow			L.Elbow			R.Wrist.Med			R.Wrist.Lat			L.Wrist.Med			L.Wrist.Lat			R.Toe.Lat			R.Toe.Med			L.Toe.Lat			L.Toe.Med			R.Temple			L.Temple			Top.Head			
		X1	Y1	Z1	X2	Y2	Z2	X3	Y3	Z3	X4	Y4	Z4	X5	Y5	Z5	X6	Y6	Z6	X7	Y7	Z7	X8	Y8	Z8	X9	Y9	Z9	X10	Y10	Z10	X11	Y11	Z11	X12	Y12	Z12	X13	Y13	Z13	X14	Y14	Z14	X15	Y15	Z15	X16	Y16	Z16	X17	Y17	Z17	X18	Y18	Z18	X19	Y19	Z19	X20	Y20	Z20	X21	Y21	Z21	X22	Y22	Z22	X23	Y23	Z23	X24	Y24	Z24	X25	Y25	Z25	X26	Y26	Z26	X27	Y27	Z27	X28	Y28	Z28	X29	Y29	Z29	X30	Y30	Z30	X31	Y31	Z31	X32	Y32	Z32	X33	Y33	Z33	X34	Y34	Z34	X35	Y35	Z35	X36	Y36	Z36	X37	Y37	Z37	X38	Y38	Z38	X39	Y39	Z39	X40	Y40	Z40	X41	Y41	Z41	X42	Y42	Z42	X43	Y43	Z43	X44	Y44	Z44	X45	Y45	Z45	X46	Y46	Z46	X47	Y47	Z47	X48	Y48	Z48	X49	Y49	Z49	

1	0.000000	623.995790	1069.763310	164.409300	617.855960	1062.003300	-88.636700	422.803710	1065.506350	33.089580	545.848750	761.875370	217.736300	611.524350	697.304140	157.659270	512.318300	667.407900	214.251190	553.106450	764.037230	-147.427950	615.284180	689.868840	-76.138920	531.112790	635.179990	-135.472050	491.969210	543.833370	198.977550	497.831020	526.627620	71.733180	485.299500	548.373110	-119.634190	515.998410	524.696780	-3.702360	483.191990	461.800230	209.943650	532.111330	389.957640	166.434590	469.979770	379.060360	219.238540	461.192140	451.230620	-137.461400	525.709470	371.140720	-100.159900	438.412930	382.680600	-143.174560	431.798710	104.276150	205.525820	451.389130	115.178320	122.041590	425.009370	106.998820	-128.102860	445.069490	109.296200	-37.157340	366.210110	75.406570	161.939850	510.094570	72.097310	129.336030	479.400700	64.673450	227.946140	649.092590	64.501430	167.132930	352.784580	71.564310	-90.375080	495.061460	66.072000	-49.962300	478.560390	54.072420	-151.677110	634.649170	62.417540	-93.771920	613.179380	1458.527830	25.397860	474.294770	1570.381710	208.626140	459.009030	1565.725830	-133.078110	440.794370	1490.367070	384.765470	436.189150	1481.379270	-336.775730	432.010530	1470.201420	486.995820	442.477870	1470.050540	-429.416170	545.635010	1527.901120	734.673400	480.142790	1540.217770	732.802250	573.908810	1497.434570	-665.289060	501.114690	1505.739140	-677.896790	573.630130	49.123830	242.144270	579.319340	39.345790	129.515850	555.449770	36.624080	-170.891980	568.647280	42.018950	-58.666980	580.178710	1703.579960	98.326260	585.988950	1714.684570	-43.549120	603.555970	1808.579220	21.082950	
2	0.017000	623.959170	1069.772710	164.411040	617.820010	1062.034670	-88.618900	422.823760	1065.458620	33.065070	545.848750	761.875370	217.736300	611.526730	697.304020	157.675110	512.217100	667.207700	213.709340	553.101380	764.029170	-147.427810	615.303410	689.839420	-76.098080	531.120540	635.161070	-135.439870	491.969150	543.833370	198.977550	497.829100	526.626950	71.732440	485.491700	548.375610	-119.629430	516.016420	524.701660	-3.710620	483.176640	461.792630	210.019490	532.054810	389.922520	166.448700	469.986300	379.083070	219.231120	461.190610	451.230190	-137.461590	525.687130	371.095550	-100.220310	438.544890	382.680110	-143.231310	431.750850	104.350850	205.579010	451.268340	115.128850	121.903090	422.793400	105.640420	-127.171580	445.102970	109.319150	-37.155010	366.216310	75.349050	161.902940	509.840000	71.899250	129.388840	479.447300	64.752270	228.138470	648.345700	64.383870	166.863100	352.548890	71.543490	-90.084500	494.961240	66.132080	-49.958450	478.589260	54.105720	-151.656330	634.649170	62.417540	-93.771920	613.290950	1458.636720	25.363470	474.114260	1570.459960	208.713680	459.188960	1565.752810	-133.038970	440.770230	1490.390380	384.750400	436.249480	1481.377810	-336.799870	432.035980	1470.215210	486.978390	442.587740	1470.068730	-429.438170	545.625550	1527.846310	734.700500	480.226620	1540.197750	732.813480	573.987180	1497.452150	-665.313720	501.379000	1505.782100	-677.798520	573.651860	49.111460	242.142210	579.337950	39.283210	129.499540	555.496890	36.710260	-170.856510	568.880680	42.336690	-58.734730	579.863100	1703.501340	98.498340	585.706050	1714.703250	-43.155440	604.196900	1808.454590	21.152840	
3	0.033000	623.928340	1069.778320	164.420360	617.819580	1062.055050	-88.615400	422.857600	1065.420650	33.039320	545.848750	761.875370	217.736300	611.531980	697.304020	157.710220	512.132630	667.029170	213.238530	553.088990	764.010190	-147.428680	615.330380	689.802490	-76.045980	531.139400	635.142210	-135.405180	491.969120	543.833370	198.977550	497.826780	526.626160	71.731570	485.658020	548.380490	-119.611990	516.050840	524.710940	-3.726350	483.193450	461.784610	210.071110	532.016240	389.898620	166.457310	469.988070	379.089140	219.229160	461.188480	451.229430	-137.461940	525.681030	371.069180	-100.260600	438.653320	382.678160	-143.276760	431.731380	104.381220	205.600660	451.187770	115.095840	121.810710	421.277440	104.697290	-126.538340	445.144040	109.343550	-37.141260	366.277280	75.313010	161.854130	509.685730	71.766590	129.419560	479.479100	64.775150	228.278260	647.812320	64.299910	166.670390	352.337680	71.484220	-89.863330	494.890470	66.174450	-49.955720	478.613490	54.133100	-151.639220	634.649170	62.417540	-93.771920	613.375980	1458.694340	25.332510	474.011110	1570.522950	208.775340	459.394810	1565.771850	-133.032550	440.750670	1490.411380	384.714360	436.334690	1481.380250	-336.832860	432.129490	1470.253910	486.935120	442.701510	1470.081910	-429.459630	545.638850	1527.784790	734.721620	480.303560	1540.181880	732.820250	574.127930	1497.486820	-665.346010	501.596130	1505.811650	-677.731200	573.679990	49.095460	242.139540	579.355710	39.219920	129.482940	555.526060	36.762370	-170.834950	569.273250	42.646460	-58.737100	579.627380	1703.442260	98.626500	585.559020	1714.722780	-42.897550	604.737850	1808.369140	21.167190	
4	0.050000	623.918460	1069.791630	164.445180	617.852780	1062.066160	-88.625150	422.909450	1065.405150	33.016970	545.848750	761.875370	217.736280	611.541440	697.304140	157.772340	512.081730	666.908080	212.933010	553.066100	763.975400	-147.431410	615.365480	689.761170	-75.986100	531.175900	635.127080	-135.372280	491.969150	543.833370	198.977550	497.824680	526.625490	71.730770	485.787900	548.393980	-119.575560	516.106080	524.725830	-3.751600	483.236020	461.774750	210.091140	532.000610	389.889340	166.458850	469.985870	379.081050	219.231670	461.185940	451.228270	-137.462480	525.699710	371.071590	-100.268920	438.721070	382.685180	-143.300290	431.743040	104.363010	205.587690	451.161470	115.085060	121.780540	420.752930	104.369060	-126.325980	445.169770	109.356710	-37.126530	366.408260	75.308310	161.792360	509.676730	71.753790	129.420840	479.511780	64.756060	228.333360	647.617490	64.269320	166.600050	352.171910	71.387250	-89.736720	494.864750	66.189610	-49.954690	478.624330	54.157690	-151.624390	634.649170	62.417540	-93.771920	613.432370	1458.689450	25.310720	473.992430	1570.577760	208.810530	459.645200	1565.782590	-133.071790	440.739140	1490.436280	384.640010	436.468260	1481.389650	-336.880370	432.332150	1470.330440	486.853910	442.828220	1470.094480	-429.480350	545.690610	1527.717410	734.728700	480.364500	1540.172610	732.817930	574.355290	1497.545410	-665.385860	501.766660	1505.828980	-677.704470	573.709590	49.078600	242.136730	579.366640	39.174400	129.470810	555.533570	36.777390	-170.828870	569.750610	42.920600	-58.665140	579.468320	1703.400390	98.711970	585.618470	1714.737550	-42.824620	605.136540	1808.365360	21.072140	
5	0.067000	623.937320	1069.820920	164.484950	617.893490	1062.073360	-88.636250	422.962830	1065.417110	33.006600	545.848750	761.875370	217.736280	611.553100	697.304570	157.848530	512.075930	666.866330	212.853910	553.039610	763.935730	-147.436100	615.402280	689.727050	-75.934370	531.226500	635.115480	-135.342100	491.969300	543.833370	198.977550	497.825260	526.625670	71.730990	485.877590	548.416560	-119.530040	516.166020	524.742000	-3.778940	483.278380	461.764500	210.089370	531.999510	389.889680	166.456800	469.983550	379.072050	219.234100	461.184910	451.227360	-137.462940	525.736570	371.096100	-100.251080	438.738590	382.704900	-143.299770	431.766570	104.326300	205.561540	451.174680	115.090480	121.795720	421.086430	104.603160	-126.480710	445.157780	109.347970	-37.125840	366.558720	75.329380	161.737110	509.761630	71.843550	129.405670	479.572300	64.741680	228.308530	647.632810	64.272190	166.605900	352.082890	71.296810	-89.706040	494.888280	66.174890	-49.955510	478.618440	54.177100	-151.613420	634.649170	62.417540	-93.771920	613.479860	1458.640010	25.304760	474.016850	1570.638670	208.831380	459.943660	1565.789790	-133.146970	440.746980	1490.469850	384.525390	436.658540	1481.400760	-336.939000	432.630070	1470.436280	486.748200	442.975400	1470.110720	-429.500430	545.778810	1527.652340	734.713990	480.406950	1540.167850	732.803590	574.638980	1497.618160	-665.427920	501.929470	1505.841190	-677.708370	573.723330	49.070780	242.135440	579.365300	39.171500	129.469830	555.517640	36.760400	-170.836940	569.993160	43.048890	-58.584190	579.303220	1703.352170	98.799290	585.808840	1714.751590	-42.858820	605.415220	1808.452880	20.861380	
6	0.083000	623.970890	1069.855220	164.530270	617.919010	1062.075200	-88.637250	422.996920	1065.452640	33.013110	545.848750	761.875370	217.736280	611.563420	697.304930	157.914000	512.115660	666.895630	212.988340	553.027100	763.918030	-147.440840	615.431760	689.709840	-75.905050	531.275760	635.099550	-135.306320	491.969670	543.833370	198.977550	497.833250	526.628360	71.734010	485.933810	548.434200	-119.498430	516.203430	524.752010	-3.795930	483.304260	461.760100	210.082410	532.008240	389.896850	166.455890	469.983610	379.071290	219.233250	461.189820	451.228210	-137.462600	525.779720	371.130430	-100.223100	438.711430	382.727870	-143.285870	431.782470	104.301480	205.543850	451.199250	115.100530	121.823860	421.864900	105.141530	-126.833220	445.121860	109.326300	-37.136890	366.644170	75.368660	161.721890	509.855500	71.960830	129.390730	479.659520	64.752250	228.245450	647.593810	64.267280	166.592640	352.091400	71.245680	-89.776950	494.946990	66.138690	-49.957620	478.606570	54.176490	-151.614360	634.649170	62.417540	-93.771920	613.541260	1458.564820	25.320200	474.056760	1570.706050	208.843220	460.279020	1565.800170	-133.239930	440.797670	1490.509520	384.382750	436.887360	1481.401860	-336.989930	432.959780	1470.552120	486.648280	443.143860	1470.126460	-429.521420	545.882570	1527.600340	734.676880	480.436040	1540.165160	732.778320	574.912780	1497.683840	-665.465390	502.118290	1505.851930	-677.727660	573.713070	49.076630	242.136410	579.358700	39.210840	129.480610	555.475460	36.716640	-170.857890	569.789180	42.927430	-58.567030	579.112610	1703.290040	98.899360	585.978090	1714.776120	-42.873570	605.622800	1808.583250	20.609420	
